<svg xmlns="http://www.w3.org/2000/svg" viewBox="0 0 24 24" width="16" height="16">
  <path fill="white" d="M12 0C5.372 0 0 5.372 0 12c0 5.303 3.438 9.8 8.208 11.384.6.11.793-.261.793-.581 0-.286-.009-1.042-.015-2.044-3.338.724-4.042-1.613-4.042-1.613C4.46 17.146 3.68 16.85 3.68 16.85c-1.085-.742.083-.727.083-.727 1.203.084 1.838 1.237 1.838 1.237 1.07 1.834 2.806 1.304 3.49.997.108-.776.416-1.305.757-1.604-2.65-.3-5.44-1.325-5.44-5.897 0-1.303.465-2.372 1.235-3.21-.125-.302-.535-1.518.117-3.162 0 0 1.005-.32 3.3 1.226A11.47 11.47 0 0 1 12 5.075c1.025.002 2.05.138 3.005.405 2.292-1.546 3.295-1.226 3.295-1.226.654 1.644.243 2.86.118 3.162.77.838 1.234 1.907 1.234 3.21 0 4.58-2.794 5.595-5.45 5.89.43.37.81 1.102.81 2.22 0 1.605-.015 2.896-.015 3.292 0 .32.19.696.8.576C20.565 21.797 24 17.3 24 12c0-6.628-5.372-12-12-12"/>
</svg>
